<mxfile host="app.diagrams.net" agent="Mozilla/5.0 (Windows NT 10.0; Win64; x64) AppleWebKit/537.36 (KHTML, like Gecko) Chrome/131.0.0.0 Safari/537.36" version="26.0.3">
  <diagram name="第 1 页" id="rmp4qP0olDDoNu-qhYZk">
    <mxGraphModel dx="2261" dy="746" grid="1" gridSize="10" guides="1" tooltips="1" connect="1" arrows="1" fold="1" page="1" pageScale="1" pageWidth="827" pageHeight="1169" math="0" shadow="0">
      <root>
        <mxCell id="0" />
        <mxCell id="1" parent="0" />
        <mxCell id="X4tEAedpMW4PkXCzZPzj-12" style="edgeStyle=orthogonalEdgeStyle;rounded=0;orthogonalLoop=1;jettySize=auto;html=1;entryX=1;entryY=0.5;entryDx=0;entryDy=0;endArrow=ERmany;endFill=0;" edge="1" parent="1" source="X4tEAedpMW4PkXCzZPzj-1" target="X4tEAedpMW4PkXCzZPzj-4">
          <mxGeometry relative="1" as="geometry" />
        </mxCell>
        <mxCell id="X4tEAedpMW4PkXCzZPzj-14" style="rounded=0;orthogonalLoop=1;jettySize=auto;html=1;entryX=0.5;entryY=0;entryDx=0;entryDy=0;endArrow=ERmany;endFill=0;" edge="1" parent="1" target="X4tEAedpMW4PkXCzZPzj-5">
          <mxGeometry relative="1" as="geometry">
            <mxPoint x="240.00076923076907" y="220" as="sourcePoint" />
            <mxPoint x="400.77" y="330" as="targetPoint" />
          </mxGeometry>
        </mxCell>
        <mxCell id="X4tEAedpMW4PkXCzZPzj-1" value="车辆" style="rounded=0;whiteSpace=wrap;html=1;" vertex="1" parent="1">
          <mxGeometry x="200" y="180" width="80" height="40" as="geometry" />
        </mxCell>
        <mxCell id="X4tEAedpMW4PkXCzZPzj-11" style="edgeStyle=orthogonalEdgeStyle;rounded=0;orthogonalLoop=1;jettySize=auto;html=1;entryX=1;entryY=0.5;entryDx=0;entryDy=0;endArrow=ERmany;endFill=0;" edge="1" parent="1" source="X4tEAedpMW4PkXCzZPzj-2" target="X4tEAedpMW4PkXCzZPzj-1">
          <mxGeometry relative="1" as="geometry" />
        </mxCell>
        <mxCell id="X4tEAedpMW4PkXCzZPzj-13" style="edgeStyle=orthogonalEdgeStyle;rounded=0;orthogonalLoop=1;jettySize=auto;html=1;entryX=0;entryY=0.5;entryDx=0;entryDy=0;endArrow=ERmany;endFill=0;" edge="1" parent="1" source="X4tEAedpMW4PkXCzZPzj-2" target="X4tEAedpMW4PkXCzZPzj-3">
          <mxGeometry relative="1" as="geometry" />
        </mxCell>
        <mxCell id="X4tEAedpMW4PkXCzZPzj-2" value="店铺" style="rounded=0;whiteSpace=wrap;html=1;" vertex="1" parent="1">
          <mxGeometry x="430" y="180" width="80" height="40" as="geometry" />
        </mxCell>
        <mxCell id="X4tEAedpMW4PkXCzZPzj-3" value="老板、员工" style="rounded=0;whiteSpace=wrap;html=1;" vertex="1" parent="1">
          <mxGeometry x="640" y="180" width="80" height="40" as="geometry" />
        </mxCell>
        <mxCell id="X4tEAedpMW4PkXCzZPzj-4" value="车辆日历" style="rounded=0;whiteSpace=wrap;html=1;" vertex="1" parent="1">
          <mxGeometry x="-20" y="180" width="80" height="40" as="geometry" />
        </mxCell>
        <mxCell id="X4tEAedpMW4PkXCzZPzj-17" style="edgeStyle=orthogonalEdgeStyle;rounded=0;orthogonalLoop=1;jettySize=auto;html=1;entryX=0.5;entryY=0;entryDx=0;entryDy=0;endArrow=ERone;endFill=0;" edge="1" parent="1" source="X4tEAedpMW4PkXCzZPzj-5" target="X4tEAedpMW4PkXCzZPzj-8">
          <mxGeometry relative="1" as="geometry" />
        </mxCell>
        <mxCell id="X4tEAedpMW4PkXCzZPzj-5" value="预定" style="rounded=0;whiteSpace=wrap;html=1;" vertex="1" parent="1">
          <mxGeometry x="200" y="330" width="80" height="40" as="geometry" />
        </mxCell>
        <mxCell id="X4tEAedpMW4PkXCzZPzj-15" style="edgeStyle=orthogonalEdgeStyle;rounded=0;orthogonalLoop=1;jettySize=auto;html=1;entryX=1;entryY=0.5;entryDx=0;entryDy=0;endArrow=ERmany;endFill=0;" edge="1" parent="1" source="X4tEAedpMW4PkXCzZPzj-6" target="X4tEAedpMW4PkXCzZPzj-5">
          <mxGeometry relative="1" as="geometry" />
        </mxCell>
        <mxCell id="X4tEAedpMW4PkXCzZPzj-18" style="edgeStyle=orthogonalEdgeStyle;rounded=0;orthogonalLoop=1;jettySize=auto;html=1;endArrow=ERmany;endFill=0;" edge="1" parent="1" source="X4tEAedpMW4PkXCzZPzj-6" target="X4tEAedpMW4PkXCzZPzj-7">
          <mxGeometry relative="1" as="geometry" />
        </mxCell>
        <mxCell id="X4tEAedpMW4PkXCzZPzj-19" style="rounded=0;orthogonalLoop=1;jettySize=auto;html=1;entryX=1;entryY=0;entryDx=0;entryDy=0;endArrow=ERmany;endFill=0;" edge="1" parent="1" source="X4tEAedpMW4PkXCzZPzj-6" target="X4tEAedpMW4PkXCzZPzj-8">
          <mxGeometry relative="1" as="geometry" />
        </mxCell>
        <mxCell id="X4tEAedpMW4PkXCzZPzj-6" value="用户" style="rounded=0;whiteSpace=wrap;html=1;" vertex="1" parent="1">
          <mxGeometry x="430" y="330" width="80" height="40" as="geometry" />
        </mxCell>
        <mxCell id="X4tEAedpMW4PkXCzZPzj-7" value="地址" style="rounded=0;whiteSpace=wrap;html=1;" vertex="1" parent="1">
          <mxGeometry x="430" y="470" width="80" height="40" as="geometry" />
        </mxCell>
        <mxCell id="X4tEAedpMW4PkXCzZPzj-8" value="评价" style="rounded=0;whiteSpace=wrap;html=1;" vertex="1" parent="1">
          <mxGeometry x="200" y="470" width="80" height="40" as="geometry" />
        </mxCell>
      </root>
    </mxGraphModel>
  </diagram>
</mxfile>
